<?xml version="1.0" standalone="no"?>
<!DOCTYPE svg PUBLIC "-//W3C//DTD SVG 20010904//EN"
 "http://www.w3.org/TR/2001/REC-SVG-20010904/DTD/svg10.dtd">
<svg version="1.0" xmlns="http://www.w3.org/2000/svg"
 width="362.000000pt" height="268.000000pt" viewBox="0 0 362.000000 268.000000"
 preserveAspectRatio="xMidYMid meet">
<metadata>
Created by potrace 1.15, written by Peter Selinger 2001-2017
</metadata>
<g transform="translate(0.000000,268.000000) scale(0.100000,-0.100000)"
fill="#000000" stroke="none">
<path d="M40 1335 l0 -1315 1473 -4 c809 -2 1501 -7 1537 -10 46 -5 61 -4 50
3 -10 8 66 11 253 11 l267 0 0 1315 0 1315 -1790 0 -1790 0 0 -1315z m3549
518 l0 -748 -350 -172 -349 -173 0 -345 0 -345 -1400 0 -1400 0 0 1265 0 1265
1750 0 1750 0 -1 -747z"/>
<path d="M2230 2490 c0 -5 -19 -12 -42 -16 -24 -4 -37 -9 -30 -11 20 -8 13
-21 -8 -16 -18 5 -20 2 -16 -20 6 -35 -1 -38 -37 -17 -21 13 -36 16 -47 10
-10 -5 -21 -6 -25 -2 -5 4 -5 1 -1 -6 5 -7 14 -11 20 -9 7 3 13 -1 13 -8 0
-11 -5 -11 -28 0 -24 13 -28 13 -34 -3 -4 -11 1 -23 15 -34 28 -22 18 -23 -15
-2 -31 20 -33 1 -2 -22 15 -11 16 -15 5 -11 -10 4 -18 1 -18 -5 0 -6 -3 -9 -6
-6 -3 4 -19 2 -35 -2 -18 -5 -27 -5 -24 1 3 5 -1 6 -9 3 -25 -9 -19 -18 19
-30 31 -10 37 -9 46 8 5 10 14 16 19 13 4 -3 15 2 23 10 9 8 18 15 22 15 12 0
34 28 27 34 -3 4 1 4 10 1 9 -4 19 -2 22 4 4 6 13 8 20 5 8 -3 17 -1 20 5 4 6
13 8 20 5 9 -3 13 2 12 17 0 12 5 23 12 25 7 1 8 0 2 -3 -22 -11 2 -22 27 -12
15 5 33 7 40 5 7 -3 22 3 33 14 16 16 18 25 10 40 -6 11 -14 20 -18 21 -4 0
-15 2 -24 4 -10 2 -18 0 -18 -5z"/>
<path d="M888 2129 c16 -21 4 -32 -15 -13 -9 8 -18 12 -21 9 -4 -3 0 -11 8
-16 12 -8 10 -9 -7 -4 -12 3 -24 1 -28 -5 -3 -5 -11 -10 -17 -10 -5 0 0 9 13
20 l24 19 -24 -4 c-14 -3 -28 -10 -32 -17 -9 -14 9 -40 22 -32 5 3 9 0 9 -5 0
-17 -11 -13 -38 12 -14 12 -22 17 -18 10 3 -6 2 -14 -4 -18 -5 -3 -10 -2 -10
3 0 6 -9 8 -21 5 -11 -3 -16 -9 -10 -12 6 -4 7 -12 1 -21 -8 -13 -10 -13 -10
0 0 11 -3 11 -12 2 -15 -15 -31 -16 -22 0 4 7 3 8 -4 4 -6 -4 -8 -14 -5 -23 5
-13 2 -15 -15 -11 -13 4 -23 0 -26 -9 -9 -22 -7 -33 5 -33 6 0 9 7 6 14 -4 10
-1 13 8 10 8 -3 12 -11 9 -18 -6 -15 25 -18 43 -4 6 5 10 19 8 31 -4 21 -4 21
10 3 8 -11 15 -14 15 -7 0 7 5 9 11 6 5 -4 20 1 31 12 15 12 19 13 14 3 -4 -8
-1 -7 8 4 8 10 19 15 25 11 6 -3 11 -1 11 5 0 6 5 8 10 5 6 -3 10 -1 10 5 0 7
6 8 16 2 21 -12 57 -3 51 12 -6 14 49 21 57 7 4 -5 -5 -8 -19 -6 -33 3 -32
-11 0 -17 17 -4 29 0 35 11 7 12 9 12 10 2 0 -8 7 -11 20 -8 11 3 23 1 26 -4
3 -6 14 -7 24 -4 11 3 29 1 42 -6 12 -7 29 -13 38 -14 32 -3 75 -19 88 -32 8
-7 18 -11 23 -7 6 3 16 0 24 -6 10 -8 15 -9 15 -2 0 6 7 9 15 5 9 -3 25 3 37
13 12 11 19 14 15 8 -3 -6 4 -16 17 -22 22 -10 24 -9 21 14 -1 13 2 24 6 24 5
0 9 -7 9 -16 0 -9 5 -12 12 -8 8 5 9 0 6 -14 -4 -12 -2 -20 2 -17 5 3 11 1 15
-4 7 -13 50 2 51 18 1 6 2 16 3 21 0 6 6 10 12 10 6 0 9 -9 6 -20 -3 -11 -1
-20 4 -20 5 0 9 6 9 13 0 8 4 7 10 -3 5 -8 10 -11 10 -6 0 5 -7 18 -17 28 -9
10 -11 18 -5 18 6 0 13 -4 16 -9 3 -4 18 -6 33 -4 16 2 33 5 40 5 7 1 10 5 7
10 -3 4 3 8 14 8 28 0 33 10 15 36 -20 31 -35 31 -27 -1 4 -15 2 -25 -4 -25
-6 0 -18 -3 -28 -7 -13 -5 -16 -3 -11 10 3 9 2 17 -4 17 -6 0 -7 5 -3 11 4 7
-3 6 -17 -2 -13 -7 -28 -12 -32 -11 -5 1 -5 -3 -2 -9 5 -8 10 -8 18 0 6 6 14
11 17 11 10 0 9 -39 -1 -45 -5 -3 -6 0 -3 8 4 11 -2 15 -19 13 -14 0 -23 -4
-21 -7 2 -4 -3 -10 -12 -13 -22 -8 -26 -8 -19 4 7 12 -5 13 -20 2 -16 -12 -16
-32 0 -32 8 0 15 -5 15 -11 0 -5 -4 -8 -9 -5 -5 4 -11 0 -14 -6 -3 -7 -10 -1
-16 15 -6 16 -8 33 -5 39 4 6 3 8 -2 5 -6 -3 -16 -2 -24 3 -8 5 -19 3 -27 -6
-12 -12 -18 -11 -39 2 -13 9 -24 12 -24 8 0 -5 -5 -2 -10 6 -8 12 -9 9 -6 -10
2 -14 9 -24 16 -22 6 1 9 -2 5 -8 -9 -15 -33 5 -38 33 -3 21 -4 20 -15 -5 -6
-16 -13 -28 -16 -28 -6 0 -1 28 7 36 11 11 8 26 -3 19 -5 -3 -10 -1 -10 6 0 7
-3 9 -7 6 -3 -4 -14 0 -24 9 -9 8 -32 17 -50 19 -19 3 -35 9 -37 15 -2 6 -8 7
-14 4 -6 -4 -14 0 -19 7 -6 11 -9 10 -14 -4 -6 -14 -9 -14 -20 -3 -15 15 -68
9 -59 -6 4 -6 -4 -3 -17 6 -15 9 -29 12 -38 7 -8 -5 -20 -7 -28 -4 -7 3 -13
-1 -13 -7 0 -9 -8 -6 -22 6 -14 12 -18 13 -10 3z"/>
<path d="M440 1865 c-1 -5 -2 -13 -2 -16 1 -3 -5 -6 -13 -6 -8 0 -12 4 -9 9 3
4 0 8 -5 8 -6 0 -11 -5 -11 -12 0 -9 -3 -9 -12 0 -7 7 -19 12 -27 12 -11 0
-10 -4 5 -14 19 -14 19 -14 -1 -13 -11 1 -20 -3 -20 -10 0 -6 -2 -13 -5 -15
-3 -2 -4 -1 -3 1 2 2 -3 11 -10 19 -10 13 -9 14 2 7 10 -6 12 -4 6 5 -7 11
-11 10 -19 -5 -6 -10 -19 -27 -28 -37 -22 -22 -22 -28 -2 -28 8 0 12 -5 9 -10
-5 -8 -12 -7 -23 2 -12 11 -16 11 -20 0 -2 -7 -10 -18 -17 -25 -10 -9 -9 -14
4 -24 14 -12 14 -12 -2 -7 -12 5 -23 0 -33 -15 -8 -11 -26 -21 -39 -21 -15 0
-23 -5 -21 -12 1 -7 1 -10 -1 -5 -11 18 -34 6 -31 -15 4 -31 28 -49 50 -37 12
6 18 6 18 0 0 -14 54 15 76 41 19 22 19 22 0 8 -17 -13 -19 -13 -14 0 2 8 14
16 26 18 12 2 26 16 34 33 7 16 16 29 20 29 5 0 8 7 8 15 0 9 11 21 25 27 28
13 34 30 8 22 -16 -5 -16 -4 0 6 10 7 28 10 39 7 11 -3 17 -3 14 0 -3 3 4 13
16 22 11 10 18 24 15 32 -3 8 -6 10 -7 4z"/>
<path d="M1979 1406 c-115 -41 -189 -138 -189 -248 0 -150 187 -214 294 -99
17 17 25 31 19 31 -6 0 -16 -7 -24 -16 -35 -42 -116 -57 -156 -29 -66 46 -43
210 42 304 38 42 84 59 124 46 24 -7 51 -53 51 -85 0 -34 17 -14 24 27 3 21 8
47 11 58 5 19 0 20 -77 22 -49 1 -98 -3 -119 -11z"/>
<path d="M723 1398 c15 -5 27 -14 27 -19 0 -5 -20 -82 -45 -171 -32 -118 -50
-168 -66 -180 -20 -17 -15 -18 140 -18 89 0 161 1 161 3 0 1 9 26 20 56 l21
53 -41 -34 c-22 -19 -57 -40 -79 -46 -46 -14 -98 -16 -105 -3 -4 5 4 46 16 90
l21 81 37 0 c41 0 56 -12 62 -50 3 -20 7 -14 21 30 9 30 19 67 23 83 l6 27
-35 -35 c-27 -27 -43 -35 -72 -35 -32 0 -36 3 -31 20 3 11 8 28 10 38 3 9 10
36 16 60 l11 42 48 0 c55 0 101 -28 101 -63 0 -31 16 -9 28 41 l10 42 -167 -1
c-123 0 -159 -3 -138 -11z"/>
<path d="M1268 1395 c17 -8 32 -16 32 -19 0 -21 -85 -306 -97 -324 -8 -13 -24
-27 -36 -32 -16 -6 -2 -9 48 -9 52 0 64 3 48 9 -31 13 -30 37 14 192 l36 131
84 -168 c46 -92 86 -166 87 -164 2 2 16 49 30 104 60 225 75 264 104 279 26
15 25 15 -37 16 -63 0 -63 0 -40 -19 l23 -18 -28 -107 c-16 -58 -32 -106 -36
-106 -4 0 -33 56 -65 125 l-58 125 -71 0 c-70 -1 -71 -1 -38 -15z"/>
</g>
</svg>
